<?xml version="1.0" encoding="UTF-8"?>
<svg xmlns="http://www.w3.org/2000/svg" xmlns:xlink="http://www.w3.org/1999/xlink" version="1.1" viewBox="0 0 1080 1080">
  <defs>
    <style>
      .cls-1 {
        fill: url(#linear-gradient-7);
      }

      .cls-2 {
        fill: url(#linear-gradient-5);
      }

      .cls-3 {
        fill: url(#linear-gradient-6);
      }

      .cls-4 {
        fill: url(#linear-gradient-4);
      }

      .cls-5 {
        fill: url(#linear-gradient-3);
      }

      .cls-6 {
        fill: url(#linear-gradient-2);
      }

      .cls-7 {
        fill: url(#linear-gradient);
      }
    </style>
    <linearGradient id="linear-gradient" x1="-235.75" y1="350.61" x2="1258.29" y2="1162.09" gradientUnits="userSpaceOnUse">
      <stop offset="0" stop-color="#a72024"/>
      <stop offset=".41" stop-color="#ed1c24"/>
      <stop offset="1" stop-color="#a72024"/>
    </linearGradient>
    <linearGradient id="linear-gradient-2" x1="-111.5" y1="121.85" x2="1382.54" y2="933.33" xlink:href="#linear-gradient"/>
    <linearGradient id="linear-gradient-3" x1="-156.72" y1="205.1" x2="1337.32" y2="1016.58" xlink:href="#linear-gradient"/>
    <linearGradient id="linear-gradient-4" x1="-58.05" y1="23.45" x2="1435.99" y2="834.93" xlink:href="#linear-gradient"/>
    <linearGradient id="linear-gradient-5" x1="-119.96" y1="137.43" x2="1374.07" y2="948.91" xlink:href="#linear-gradient"/>
    <linearGradient id="linear-gradient-6" x1="-157.56" y1="206.65" x2="1336.48" y2="1018.13" xlink:href="#linear-gradient"/>
    <linearGradient id="linear-gradient-7" x1="-80.62" y1="65.01" x2="1413.41" y2="876.49" xlink:href="#linear-gradient"/>
  </defs>
  <!-- Generator: Adobe Illustrator 28.7.0, SVG Export Plug-In . SVG Version: 1.2.0 Build 136)  -->
  <g>
    <g id="Layer_1">
      <g>
        <path class="cls-7" d="M370.6,619.37c-14.44-4.9-22.47-15.71-27.78-29.53-6.45,2.21-12.2,5.52-17.02,9.96-4.09,3.77-7.44,8.4-10.75,12.92-1.02,1.39-1.08,3.65-1.12,5.53-.07,3.64,1.84,5.46,5.62,5.54,5.2.1,9.83-1.83,13.58-5.16,3.83-3.4,7.11-7.41,10.81-11.35,4.78,5.76,8.09,12.73,9.49,20.53,2.45,13.72.99,26.9-6.56,38.92-5.93,9.45-14.72,13.26-25.82,12.6-19.68-1.18-30.54-13.12-37.19-30.1-5.62-14.37-6.93-29.46-6.42-44.72.2-6.13,4.63-9.11,10.09-7.28,3.68,1.23,4.58,2.79,3.92,6.61-1.7,9.81-1.93,19.6.75,29.3,5.38,19.5,25.4,29.36,42.88,21.12,7.48-3.53,11.24-11.58,8.41-18.8-.88.69-1.69,1.27-2.44,1.92-9.37,8.04-21.28,7.62-29.93-1.08-11.55-11.62-13.02-29.09-3.59-44.18,1.9-3.05,4.23-5.83,6.56-9.01-.92-.1-1.79-.28-2.65-.28-9.3-.02-18.63.45-27.89-.13-12.13-.76-20.53,4.75-27.07,14.15-9.71,13.94-14.51,29.74-17.09,46.28-.87,5.56-1.03,11.24-1.38,16.88-.08,1.36.36,2.75.56,4.12.32.05.63.11.95.16.48-1.35,1.03-2.69,1.44-4.06,2.65-8.91,10.03-14.11,18.04-12.69,10.55,1.87,15.61,13.79,10.1,23.79-6.07,11.04-20.21,14.37-30.93,7.1-9.06-6.14-13.35-15.43-15.42-25.67-4.85-24.02,1.66-45.69,14.61-65.86.57-.89,1.17-1.76,2.19-3.32-4.33-.28-8.12-.92-11.85-.67-6.45.43-11.81-.69-14.98-7.41-1.79,8.5-3.58,16.99-5.37,25.49-4.98,23.51-10.06,47.01-14.89,70.55-2.03,9.9-4.27,19.69-8.54,28.93-.36.78.51,2.58,1.33,3.37,5.19,5.01,10.61,9.8,15.77,14.83,1.52,1.48,2.97,3.4,3.51,5.38.54,1.97.68,4.98-.45,6.22-1.49,1.63-4.35,2.15-6.73,2.72-.52.13-1.68-1.43-2.19-2.39-4.21-7.94-10.15-14.24-17.32-19.03-4.16,3.73-7.8,7.64-12.06,10.7-9.8,7.02-21.98,6.98-30.69.39-6.73-5.09-9.54-13.12-7.14-20.4,2.23-6.76,9.84-12.61,17.55-12.35,7.02.24,14.01,1.57,21.54,2.49.44-1.61,1.25-4.1,1.79-6.66,3.86-18.34,7.96-36.63,11.31-55.06,1.09-5.98.17-12.33.17-18.51-.35-.15-.7-.29-1.05-.44-6.9,5.41-13.97,10.62-20.64,16.3-6.58,5.61-12.76,11.7-19.41,17.85-4.47-5.09-8.97-10.21-13.52-15.4,2.5-2.66,5.31-4.81,6.95-7.63,1.85-3.21,3.45-6.97,3.7-10.59.41-5.91-4.04-8.9-9.86-7.48-.82.2-1.63.44-2.42.73-10.57,3.92-16.35-4.48-16.62-12.13-.58-16.2,9.35-27.52,25.49-30.1,25.43-4.06,44.58,10.59,52.5,31.73.49,1.3.9,2.62,2.1,3.9,1.28-5.8,2.57-11.6,3.82-17.4,2.46-11.39,4.91-22.77,7.35-34.17,1.18-5.53,1.16-5.54,7.34-4.62.37,3.65.54,7.38,1.17,11.02,1.32,7.67,4.55,10.14,12.26,10.34,10.6.28,20.7,2.12,27.44,9.91,6.74-3.05,12.8-6.16,19.14-8.51,3.18-1.18,6.87-1.37,10.34-1.37,40.21-.08,80.42-.09,120.63,0,9.48.02,17.24,3.35,21.93,12.64,2.46-11.27,4.92-22.54,7.44-34.08h6.05c.52,4.05.8,8.13,1.62,12.09,1.36,6.61,4.09,8.73,10.88,9.42.99.1,2.59.88,2.72,1.57,1.04,5.51,1.79,11.08,2.66,16.85-6.02.79-7.97-3.55-10.8-7.58-.81,3.53-1.56,6.58-2.21,9.66-6.57,31.04-13.18,62.07-19.6,93.14-.58,2.83-1.68,3.43-4.26,3.36-5.53-.16-11.07-.05-17-.05,1.6-7.51,3.09-14.65,4.63-21.78,4.89-22.68,9.73-45.36,14.74-68.01.66-2.97-.29-4.83-2.77-5.77-3-1.15-6.18-2.5-9.3-2.54-16.53-.25-33.07-.12-49.63-.12,2.22,10.3,15.09,17.81,26.03,15.3q5.52-1.27,7.98,3.93c2.66,5.63,5.32,11.25,7.89,16.7-17.14,10.72-23.01,27.23-25.8,45.49-1.06,6.97-.61,13.57,3.33,19.81,1.8,2.86-1.05,4.59-3.05,6.01-2.9,2.06-6.45,1.82-7.92-1.08-1.91-3.79-3.81-7.97-4.14-12.11-1.29-15.84-.21-31.52,6.22-46.36,1.61-3.72,3.79-7.2,5.94-11.2ZM146.62,609.52c8.82-6.48,17.08-12.56,25.32-18.62-5.85-9.19-16.51-14.05-25.8-11.96-6.67,1.5-11.2,5.75-12,11.4,9.78,2.38,12.76,9.47,12.48,19.18ZM162.48,704.45c-5.21-1.56-10.49-2.5-15.87-1.35-4.39.94-6.87,4.71-6.22,8.76.6,3.79,4.06,6.07,8.65,5.73,5.87-.44,11.49-5.86,13.44-13.14Z"/>
        <path class="cls-6" d="M684.73,595.21c4.9-.09,9.84-1.13,14.29-.09,10.88,2.54,15.42,11.14,16.74,21.22,1.67,12.77-2.76,23.7-12.33,32.42-3.47,3.17-7.52,5.14-12.39,5.21-9.3.13-15.29-6.19-14.67-15.45,4.32-1.57,9.03-2.43,12.71-4.85,4.84-3.17,9.09-7.36,13.16-11.54,2.01-2.06,3.16-5.61,1.03-7.93-1.47-1.6-4.8-2.49-7.07-2.16-4.59.66-9.04,2.32-13.53,3.65-2.53.75-4.97,1.89-7.53,2.51-8.47,2.05-15.19-2.35-16.04-10.97-1.88-18.98,8.88-36.71,24.25-43.58,17.53-7.84,38.96.52,47.24,18.29.43.92.89,1.83,1.78,3.66,1.67-7.48,3.14-13.98,4.57-20.48,1.28-5.86,2.54-11.73,3.76-17.6,1.15-5.55,1.13-5.56,7.37-4.89.38,3.59.7,7.26,1.17,10.91.99,7.7,5.94,10.53,12.46,10.68,10.65.24,17.61.58,28.01,10.28,15.98-10.46,32.1-16.77,49.47-1.68,9.86-7.89,22.28-8.22,34.56-8.6,10.98-.34,21.98-.05,32.97-.11,2.23-.01,3.45.31,3.7,3.05.47,5.09,1.53,10.13,2.35,15.23-18.79,1.82-37.33-1.79-55.57,2.18-.65.14-1.21.69-1.94,1.12,1.43,4.24,4.66,6.23,8.49,7.19,3.84.96,7.79,1.45,11.71,2.06,14,2.18,21.52,11.22,24.57,24.17,5.15,21.86-5.03,41.23-26.59,51.09-5.31,2.43-10.99,4.08-16.82,6.21,4.68,2.46,9.46,4.44,13.65,7.3,6.45,4.39,12.54,9.31,18.68,14.14,1.29,1.01,2.22,2.53,3.13,3.94,1.4,2.16,2.2,4.86.14,6.63-1.84,1.58-4.56,2.21-6.98,3.02-.48.16-1.57-.59-1.95-1.19-8.49-13.62-21.94-19.43-36.69-22.91-6.79-1.61-13.8-2.29-20.68-3.53-1.1-.2-2.84-1.05-2.95-1.79-1.09-7.23-1.9-14.51-2.83-22.08,6.35-.38,12.34-.53,18.28-1.13,12.68-1.29,25.13-3.54,36-10.82,8.17-5.47,13.29-12.83,13.62-22.97.25-7.83-1.5-10.28-9.04-12.46-1.46-.42-2.98-.63-5.25-1.1,5.06,9.09,2.24,16.64-2.9,23.67-5.71,7.81-13.23,13.02-23.1,13.96-7.05.67-13.06-1.91-17.72-7.24-7.28-8.33-10.21-17.9-7.57-28.83,2.37-9.78,4.88-19.52,7.43-29.7-8-1.26-16.22-1.1-23.44,4.91-6.34,5.29-10.82,11.98-14.29,19.32-7.76,16.42-11.86,33.74-12.1,51.93-.02,1.55.37,3.1.57,4.65.39.02.79.05,1.19.07.43-1.41.85-2.83,1.28-4.24,2.67-8.72,9.97-13.81,17.86-12.45,10.59,1.82,15.73,13.73,10.24,23.75-6.04,11.04-20.21,14.43-30.92,7.2-9.19-6.2-13.46-15.62-15.54-25.99-4.81-24.05,1.83-45.68,14.83-65.81.46-.71.93-1.4,1.38-2.11.06-.09.04-.23.14-1.01-3.9-.25-7.8-.93-11.62-.64-6.43.49-11.5-.97-14.66-7.45-3.72,17.52-7.45,35.03-11.16,52.55-3.71,17.52-7.39,35.04-11.14,52.82h-20.58c1.54-7.09,3.1-14.07,4.57-21.07,3.41-16.23,6.96-32.44,10.07-48.73,1.43-7.49.29-14.9-3.5-21.67-4.6-8.21-12.96-11.82-22.83-10.07-7.96,1.41-14.33,8.13-15.52,15.92ZM847.39,594.96c-.68,1.93-1.33,3.35-1.67,4.84-2.32,9.94-4.68,19.87-6.76,29.86-.37,1.77-.04,5.02.91,5.44,1.77.77,4.24.02,6.41-.22.55-.06,1.09-.51,1.55-.89,7.49-6.15,10.91-14.43,12.29-23.72.09-.59-.53-1.64-1.1-1.92-5.52-2.79-8.9-7.46-11.62-13.39Z"/>
        <path class="cls-5" d="M576.66,680.95h-20.56c1.53-7.17,3.13-14.14,4.49-21.15,2.03-10.49,3.93-21.01,5.75-31.54.32-1.86.41-4.02-.23-5.72-.78-2.08-2.12-4.88-3.84-5.43-1.74-.55-4.91.67-6.25,2.18-2.25,2.54-3.68,5.85-5.17,8.97-.86,1.81-1.15,3.89-1.85,6.38-4.8-.99-9.59-1.92-14.34-3.05-.66-.16-1.38-1.25-1.56-2.02-2.04-8.75-6.14-12.7-13.53-12.84-7.98-.15-14.6,4.62-16.45,12.49-.89,3.8-.84,7.82-.39,12,.49-.69,1-1.37,1.46-2.08,4.12-6.41,11.49-8.84,18.66-6.14,6.13,2.31,9.17,8.31,8.11,16.02-.96,7-6.18,11.65-13.38,12.52-16.89,2.05-28.6-11.62-30.58-26.23-1.39-10.24-.19-19.89,5.91-28.6,5.99-8.57,14.37-12.03,24.47-10.72,9.22,1.19,15.05,7,18.22,15.58.19.52.45,1.01.82,1.86,1.54-3.02,2.74-5.73,4.25-8.26,7.69-12.82,21.18-12.68,28.61.23.52.91,1.07,1.8,2.1,3.52,1.2-5.65,2.35-10.47,3.15-15.35.17-1.05-.78-2.46-1.54-3.47-4.85-6.42-12.02-7.19-19.2-7.25-21.01-.16-42.02-.12-63.02,0-3.35.02-5.28-.28-5.42-4.43-.15-4.6-1.33-9.17-2.15-14.31h4.09c16.78,0,33.57-.16,50.35.06,9.56.13,19.25.77,27.37,6.54,4.43,3.15,8.11,7.36,12.29,11.23,3.76-10.09,10.89-16.9,22.97-17.66,11.3-.71,21.33.82,27.01,13.72,2.34-11.06,4.41-20.84,6.48-30.62q1.18-5.6,7.33-4.68c.33,3.39.48,6.87,1.04,10.28,1.32,7.93,3.8,10.13,11.68,11.18.92.12,2.31,1.11,2.45,1.89,1.01,5.39,1.75,10.83,2.61,16.51-6.05.75-8.19-3.45-10.84-8.08-7.6,35.97-15.05,71.17-22.51,106.44h-20.5c1.39-6.54,2.72-12.85,4.07-19.15,5.04-23.51,10.03-47.03,15.2-70.51.61-2.77-.14-4.41-2.38-5.62-6.12-3.31-12.73-3.62-19.31-2.25-4.91,1.02-6.55,5.47-7.57,9.73-1.88,7.82-3.44,15.72-5.07,23.6-4.42,21.28-8.82,42.58-13.3,64.21Z"/>
      </g>
      <path class="cls-4" d="M611.34,407.17c4.29-19.88,8.39-38.87,12.52-57.96h6.16c.36,3.57.6,7.14,1.11,10.66,1.12,7.81,4.65,10.65,12.58,10.89,10.61.31,20.72,2.17,28.16,10.96,5.66-4.73,11.57-8.44,18.63-9.77,3.42-.64,6.93-1.15,10.4-1.16,39.97-.08,79.94-.07,119.91-.02,9.62.01,17.52,3.24,22.31,12.63,2.42-11.29,4.83-22.58,7.3-34.09h6.2c.45,3.98.64,7.94,1.38,11.81,1.28,6.69,4.27,9.05,11.05,9.75,1.02.1,2.62,1.09,2.78,1.9,1.06,5.38,1.8,10.83,2.68,16.49-6.1.88-8.13-3.49-10.9-7.9-7.59,35.86-15.04,71.09-22.49,106.32h-20.4c.62-3.2,1.16-6.19,1.8-9.16,5.72-26.56,11.39-53.14,17.29-79.67.87-3.91-.43-6.05-3.75-7.2-2.81-.97-5.8-1.98-8.73-2.01-16.06-.2-32.12-.11-48.18-.11-.33,0-.66.16-.99.24,3.8,12.29,15.04,17.28,31.63,13.8,3.41,7.26,6.88,14.62,10.37,22.04-16.37,9.63-22.25,25.41-25.48,42.58-1.46,7.73-1.94,15.6,2.99,22.67.45.65.38,2.46-.13,2.85-2.08,1.6-4.27,3.44-6.71,4.11-2.93.8-4.92-1.73-5.5-4.16-1.43-5.92-3.2-11.96-3.22-17.96-.04-17.13,1.95-33.95,12.32-48.54.13-.18.11-.45.24-1.03-14.27-4.86-22.48-15.64-27.79-29.96-3.66,1.95-7.19,3.63-10.51,5.66-6.22,3.81-11.88,8.32-15.79,14.61-2.35,3.78-4.44,8.28-1.3,12.09,3.17,3.84,7.84,1.97,11.77.42,6.14-2.43,10.75-6.79,14.32-12.29.65-1,1.29-2,2.13-3.3,4.94,5.61,7.92,12,9.53,18.86,3.37,14.36,1.82,28.23-5.94,41-5.81,9.55-14.62,13.46-25.7,12.82-19.97-1.14-30.98-13.22-37.56-30.58-5.41-14.28-6.81-29.21-6.36-44.34.17-5.84,4.86-9.01,10.23-7.17,3.75,1.29,4.66,2.85,3.93,6.72-1.88,9.95-1.93,19.88.87,29.68,5.47,19.19,25.19,28.73,42.53,20.65,5.3-2.47,8.58-6.61,9.5-12.35.33-2.09-.18-4.32-.27-5.81-4.73,2.24-8.9,5.2-13.5,6.2-10.79,2.37-19.88-2.89-25.42-14-7.2-14.46-3.92-27.75,5.02-40.27,1.12-1.56,2.43-2.99,3.64-4.49.05-.06,0-.21,0-.79h-5.94c-8.09,0-16.22.48-24.26-.11-12.65-.93-21.15,5.15-27.77,14.92-9.23,13.64-14.01,28.96-16.42,45.07-.87,5.81-1.04,11.73-1.41,17.6-.08,1.3.39,2.64.6,3.97.33.03.66.06.99.09.49-1.52.98-3.05,1.46-4.57,2.84-9.05,10.36-13.9,18.68-12.04,9.93,2.23,14.58,13.81,9.39,23.38-6.71,12.36-22.91,14.95-33.75,5.29-6.92-6.16-10.83-14.16-12.64-23.06-4.91-24.16,1.38-45.99,14.42-66.31.63-.97,1.28-1.93,2.33-3.48-4.44-.27-8.27-.91-12.03-.64-6.36.45-11.54-.79-14.73-7.35-1.47,6.82-2.98,13.63-4.41,20.46-5.83,27.88-11.47,55.81-17.57,83.63-1.5,6.86-4.31,13.47-6.82,20.08-.75,1.98-.51,2.85,1.08,4.15,4.47,3.66,8.88,7.43,13,11.47,2.38,2.33,4.39,5.13,6.15,7.98,3.85,6.26-1.83,9.76-6.43,9.67-.9-.02-2.1-1.32-2.61-2.31-4.13-8.02-10.18-14.23-17-18.93-3.06,2.74-5.9,5.33-8.78,7.86-10.51,9.24-24.26,10.48-34.2,3.11-6.8-5.04-9.6-12.93-7.25-20.38,2.15-6.8,9.67-12.35,17.45-12.53,3.59-.08,7.24.15,10.79.72,3.54.57,6.98,1.75,10.87,2.77,1.74-7.9,3.52-15.73,5.18-23.59,2.77-13.17,5.82-26.3,8.02-39.57.97-5.82.16-11.93.16-18.86-15.13,10.54-28.54,21.59-40.9,34.89-4.66-5.28-9.14-10.36-14.29-16.2,1.98-1.72,4-3.22,5.72-5,3.34-3.45,5.85-7.38,5.68-12.45-.21-6.13-4.3-9.21-10.21-7.74-.7.17-1.41.35-2.08.61-10.81,4.16-16.63-4.47-16.93-12.11-.63-15.82,9.34-27.4,25.26-30,25.96-4.25,45.76,11.03,53.23,33.18.34,1.01.68,2.03,1.34,4.01ZM596,397.66c-5.15-8.72-15.96-13.86-25.15-12.19-6.75,1.23-11.75,5.8-12.63,11.63,9.87,2.32,12.75,9.52,12.66,18.99,8.54-6.27,16.75-12.29,25.12-18.43ZM587.16,510.37c-5.75-.28-10.74-.9-15.68-.64-3.97.2-6.7,3.29-7.05,6.58-.65,6.05,5.32,9.8,11.76,7.31,5.61-2.17,8.43-6.79,10.98-13.25Z"/>
      <path class="cls-2" d="M459.05,487.63h-20.34c3.54-18.82,4.59-37.26-4.9-55.67-.61,1.49-.95,2.07-1.08,2.69-1.83,8.61-8.07,13.43-17.17,13.2-9.24-.23-16.47-6.04-17.9-14.38-2.86-16.66,9.17-27.25,26.37-23.22,11.17,2.62,17.24,10.4,20.8,20.61,1.21,3.47,2.03,7.07,3.27,11.49,3.02-14.28,5.89-27.64,8.62-41.03.22-1.08-.27-2.55-.92-3.52-4.64-6.97-11.96-8.08-19.45-8.23-10.62-.22-21.26-.34-31.87.04-6.43.23-11.79-.65-15.16-7.3-7.41,35.05-14.82,70.1-22.26,105.3h-20.29c2.55-27.28-8.52-37.96-43.58-41.88-.97-6.6-1.95-13.3-2.89-19.68,7.9-2.51,15.68-4.31,22.85-7.47,5.39-2.38,10.35-6.11,14.87-9.97,3.89-3.32,5.44-8.07,3.88-14.13-1.47,1.26-2.53,2.12-3.52,3.04-9.38,8.7-20.26,12.42-32.94,9.55-12.09-2.74-15.62-14.64-12.42-24.03,2.08-6.1,7.54-9.71,14.2-9.92,7.14-.22,12.76,3.14,15.38,9.29.61,1.43,1,2.94,1.65,4.88,5.31-5.91,7.9-13.1,11.14-20.39,11.67,5.91,17.85,15.5,20.08,27.66,3.45,18.84-4.98,31.79-21.24,40.16,3.81,3.72,7.82,6.86,10.83,10.77,3.01,3.92,5.03,8.61,7.67,13.3,1.21-5.49,2.42-10.91,3.6-16.34,6.35-29.48,12.7-58.97,19.04-88.45,1.2-5.59,1.17-5.6,7.31-4.53.34,3.41.53,6.89,1.06,10.31,1.28,8.12,4.67,10.86,12.88,10.98,10.13.15,20.27.25,30.39.69,13.22.57,23.98,5.82,31.19,17.31.19.3.46.54.94,1.1,1.06-2.21,1.94-4.25,2.98-6.2,4.79-9,15.7-14.45,25.57-12.74.74.13,1.81.95,1.92,1.59.96,5.43,1.73,10.89,2.59,16.58-1.03.17-1.81.39-2.59.41-6.67.2-9.82,2.1-11.59,8.66-2.32,8.58-3.97,17.34-5.8,26.05-4.41,21.05-8.74,42.12-13.16,63.44Z"/>
      <path class="cls-3" d="M262.57,487.64h-19.88c0-2.65.02-5.13,0-7.61-.06-5.52-2.33-8.52-7.92-9.44-4.27-.7-8.66-.63-12.98-1.02-15.12-1.38-27.72-7.24-34.31-21.62-6.37-13.9-5.38-27.87,2.37-41.13,3.06-5.23,7.35-7.22,11.61-5.66,1.57.58,2.98,1.91,4.11,3.21,1.37,1.57,1.23,2.97-.74,4.45-7.56,5.68-10.67,13.78-11.36,22.84-.58,7.66,3.93,12.03,12.3,12.15,8.14.11,16.08,1.03,23.68,4.16,7.63,3.15,13.56,8.1,17.53,15.8,1.35-6.12,2.75-12.24,4.06-18.37,3.88-18.21,7.74-36.43,11.56-54.65.27-1.28.4-2.64.29-3.94-.37-4.42-3.21-6.18-7.3-4.46-1.64.69-3.19,1.73-4.58,2.85-4.76,3.84-10.03,11.05-12.66,17.14.69.4,1.39.82,2.1,1.22,6.25,3.52,8.94,10.43,7.06,18.12-1.66,6.77-7.41,11.32-14.18,11.95-12.24,1.14-20.75-8.5-20.53-21.13.24-14.11,16.45-39.31,34.56-42.77,11.2-2.14,22.16,2.86,27.79,13.51,5.01,9.46,4.91,19.5,2.89,29.57-5,24.86-10.25,49.67-15.46,74.83Z"/>
      <g id="FWxpAo">
        <path class="cls-1" d="M933.89,673.88c.04-7.55,1.73-14.86,3.31-22.18,3.55-16.44,7.15-32.87,10.69-49.31,1.45-6.73,2.92-13.45,4.17-20.22.66-3.56.6-7.24-.68-10.68-.67-1.8-.51-2.68,1.25-3.62,4.79-2.56,9.71-3.33,14.86-1.48,2.81,1.01,4.39,3.24,5.05,6.1,1.02,4.39.3,8.7-.61,13.01-4.97,23.48-9.98,46.96-14.88,70.46-1.26,6.03-2.86,12.02-2.73,18.28.06,2.8.45,5.48,1.82,7.98.2.37.11,1.19-.18,1.5-4.54,5.01-12.54,6.25-17.82,2.59-3.25-2.25-3.87-5.89-4.23-9.53-.09-.95-.01-1.92-.01-2.88Z"/>
      </g>
    </g>
  </g>
</svg>